<svg width="881" height="723" viewBox="0 0 881 723" fill="none" xmlns="http://www.w3.org/2000/svg">
<g clip-path="url(#clip0)">
<path d="M661.291 100.373C641.497 75.8711 612.322 80.2357 612.322 80.2357C612.322 80.2357 583.37 81.7406 573.145 126.924C563.615 169.039 547.422 211.061 585.527 213.062L587.825 189.142L596.488 212.673C601.746 212.075 606.962 211.161 612.111 209.934C650.813 200.948 688.26 195.517 684.145 180.28C678.668 160.015 680.334 123.949 661.291 100.373Z" fill="#2F2E41"/>
<path d="M769.508 575.25C769.508 547.727 761.781 520.757 747.207 497.409C732.634 474.062 711.798 455.274 687.073 443.184C662.347 431.095 634.724 426.19 607.348 429.027C579.971 431.864 553.941 442.329 532.22 459.231C513.731 437.838 489.875 421.76 463.107 412.652C436.34 403.544 407.628 401.735 379.929 407.411C352.229 413.088 326.544 426.045 305.517 444.948C284.49 463.851 268.881 488.017 260.298 514.958C245.937 502.192 228.69 493.105 210.04 488.479C191.39 483.852 171.896 483.826 153.233 488.4C134.571 492.975 117.299 502.015 102.903 514.741C88.5067 527.468 77.4175 543.501 70.5887 561.462C63.7599 579.423 61.396 598.773 63.7002 617.85C66.0045 636.926 72.908 655.157 83.8169 670.975C94.7258 686.793 109.314 699.725 126.326 708.658C143.338 717.591 162.266 722.258 181.481 722.257C183.325 722.257 185.157 722.209 186.98 722.126C188.863 722.207 190.754 722.257 192.657 722.257H637.976C670.018 722.255 700.911 710.325 724.639 688.791C748.366 667.257 763.227 637.662 766.327 605.77C768.445 595.735 769.511 585.507 769.508 575.25Z" fill="#DBDBDB"/>
<path d="M774.508 557.25C774.508 529.727 766.781 502.757 752.207 479.409C737.634 456.062 716.798 437.274 692.073 425.184C667.347 413.095 639.724 408.19 612.348 411.027C584.971 413.864 558.941 424.329 537.22 441.231C518.731 419.838 494.875 403.76 468.107 394.652C441.34 385.544 412.628 383.735 384.929 389.411C357.229 395.088 331.544 408.045 310.517 426.948C289.49 445.851 273.881 470.017 265.298 496.958C250.937 484.192 233.69 475.105 215.04 470.479C196.39 465.852 176.896 465.826 158.233 470.4C139.571 474.975 122.299 484.015 107.903 496.741C93.5067 509.468 82.4175 525.501 75.5887 543.462C68.7599 561.423 66.396 580.773 68.7002 599.85C71.0045 618.926 77.908 637.157 88.8169 652.975C99.7258 668.793 114.314 681.725 131.326 690.658C148.338 699.591 167.266 704.258 186.481 704.257C188.325 704.257 190.157 704.209 191.98 704.126C193.863 704.207 195.754 704.257 197.657 704.257H642.976C675.018 704.255 705.911 692.325 729.639 670.791C753.366 649.257 768.227 619.662 771.327 587.77C773.445 577.735 774.511 567.507 774.508 557.25V557.25Z" stroke="#19172C" stroke-miterlimit="10"/>
<path d="M192.675 462.248C244.283 462.248 286.12 420.411 286.12 368.803C286.12 317.194 244.283 275.358 192.675 275.358C141.067 275.358 99.2298 317.194 99.2298 368.803C99.2298 420.411 141.067 462.248 192.675 462.248Z" fill="#F0A62E"/>
<path d="M192.98 165.056H192.98C180.331 165.056 170.077 175.31 170.077 187.959V234.498C170.077 247.147 180.331 257.402 192.98 257.402H192.98C205.629 257.402 215.883 247.147 215.883 234.498V187.959C215.883 175.31 205.629 165.056 192.98 165.056Z" fill="#F0A62E"/>
<path d="M369.277 267.194L369.277 267.194C362.953 256.239 348.945 252.486 337.991 258.811L297.687 282.08C286.732 288.405 282.979 302.412 289.304 313.367L289.304 313.367C295.628 324.321 309.636 328.074 320.59 321.75L360.894 298.48C371.849 292.156 375.602 278.148 369.277 267.194Z" fill="#F0A62E"/>
<path d="M16.0723 470.412L16.0723 470.412C22.3968 481.366 36.4042 485.119 47.3586 478.795L87.6628 455.525C98.6173 449.201 102.371 435.193 96.046 424.239C89.7215 413.284 75.7141 409.531 64.7597 415.856L24.4554 439.125C13.501 445.45 9.74776 459.457 16.0723 470.412Z" fill="#F0A62E"/>
<path d="M16.3777 266.665L16.3776 266.665C10.0531 277.619 13.8064 291.627 24.7608 297.951L65.065 321.221C76.0194 327.545 90.0268 323.792 96.3513 312.838L96.3514 312.838C102.676 301.883 98.9226 287.876 87.9682 281.551L47.664 258.282C36.7096 251.957 22.7022 255.71 16.3777 266.665Z" fill="#F0A62E"/>
<path d="M203.675 451.248C255.283 451.248 297.12 409.411 297.12 357.803C297.12 306.194 255.283 264.358 203.675 264.358C152.067 264.358 110.23 306.194 110.23 357.803C110.23 409.411 152.067 451.248 203.675 451.248Z" stroke="#19172C" stroke-miterlimit="10"/>
<path d="M203.98 154.056H203.98C191.331 154.056 181.077 164.31 181.077 176.959V223.498C181.077 236.147 191.331 246.402 203.98 246.402H203.98C216.629 246.402 226.883 236.147 226.883 223.498V176.959C226.883 164.31 216.629 154.056 203.98 154.056Z" stroke="#19172C" stroke-miterlimit="10"/>
<path d="M380.277 256.194L380.277 256.194C373.953 245.239 359.945 241.486 348.991 247.811L308.687 271.08C297.732 277.405 293.979 291.412 300.304 302.367L300.304 302.367C306.628 313.321 320.636 317.074 331.59 310.75L371.894 287.48C382.849 281.156 386.602 267.148 380.277 256.194Z" stroke="#19172C" stroke-miterlimit="10"/>
<path d="M27.0723 459.412L27.0723 459.412C20.7478 448.457 24.501 434.45 35.4554 428.125L75.7597 404.856C86.7141 398.531 100.721 402.284 107.046 413.239L107.046 413.239C113.371 424.193 109.617 438.201 98.6628 444.525L58.3586 467.795C47.4042 474.119 33.3968 470.366 27.0723 459.412Z" stroke="#19172C" stroke-miterlimit="10"/>
<path d="M27.3777 255.665L27.3776 255.665C21.0531 266.619 24.8064 280.627 35.7608 286.951L76.065 310.221C87.0194 316.545 101.027 312.792 107.351 301.838L107.351 301.838C113.676 290.883 109.923 276.876 98.9682 270.551L58.664 247.282C47.7096 240.957 33.7022 244.71 27.3777 255.665Z" stroke="#19172C" stroke-miterlimit="10"/>
<path d="M697.222 530.702L681.13 563.503C681.13 563.503 652.042 559.79 663.801 598.161C663.801 598.161 660.707 627.249 654.518 633.438C648.329 639.627 659.469 680.474 681.749 668.715C694.282 662.101 695.065 654.507 693.352 649.129C690.693 641.109 690.174 632.533 691.847 624.25C694.083 613.781 698.111 600.391 705.267 588.878C719.502 565.979 733.118 543.699 733.118 543.699L697.222 530.702Z" fill="#E9AFB7"/>
<path d="M656.994 328.942C656.994 328.942 621.717 320.278 609.958 326.467C598.199 332.656 563.541 333.275 563.541 333.275C563.541 333.275 534.453 380.311 541.26 404.447C548.068 428.584 576.537 443.438 576.537 443.438L672.466 444.057L687.938 380.929C687.938 380.929 680.512 337.607 674.323 335.131C668.134 332.656 656.994 328.942 656.994 328.942Z" fill="#19172C"/>
<path d="M592.629 158.127C592.629 158.127 598.818 184.121 589.534 187.215C580.251 190.31 572.205 202.688 572.205 202.688L585.821 225.587L632.238 237.346L646.472 223.73L656.994 194.642L646.472 187.215C646.472 187.215 636.57 190.31 635.951 180.408C635.655 172.975 635.862 165.532 636.57 158.127L592.629 158.127Z" fill="#E9AFB7"/>
<path opacity="0.1" d="M592.629 158.127C592.629 158.127 598.818 184.121 589.534 187.215C580.251 190.31 572.205 202.688 572.205 202.688L585.821 225.587L632.238 237.346L646.472 223.73L656.994 194.642L646.472 187.215C646.472 187.215 636.57 190.31 635.951 180.408C635.655 172.975 635.862 165.532 636.57 158.127L592.629 158.127Z" fill="#F0A62E"/>
<path d="M616.456 175.147C637.306 175.147 654.209 158.245 654.209 137.395C654.209 116.544 637.306 99.642 616.456 99.642C595.606 99.642 578.703 116.544 578.703 137.395C578.703 158.245 595.606 175.147 616.456 175.147Z" fill="#E9AFB7"/>
<path d="M614.29 223.73L578.394 190.929C578.394 190.929 562.303 204.544 560.446 204.544C558.589 204.544 534.453 211.971 533.834 215.066C533.215 218.16 554.876 250.962 554.876 250.962C554.876 250.962 549.925 275.098 554.876 285.62C559.827 296.141 556.114 341.32 556.114 341.32C556.114 341.32 588.915 329.561 606.244 335.131C623.573 340.701 674.323 335.131 674.323 335.131C674.323 335.131 681.749 287.476 678.655 281.287C675.56 275.098 674.942 239.821 674.942 239.821L701.554 210.734C701.554 210.734 695.984 188.453 674.942 187.215C653.899 185.978 640.902 184.74 640.902 184.74L614.29 223.73Z" fill="#01956C"/>
<path d="M572.205 375.978C572.205 375.978 502.889 344.415 475.039 329.561C447.188 314.708 404.485 326.467 418.1 359.887C431.716 393.307 507.84 426.109 507.84 426.109C507.84 426.109 532.596 444.676 547.449 444.057C562.303 443.438 583.655 443.747 583.655 443.747L572.205 375.978Z" fill="#19172C"/>
<path d="M679.274 380.311C679.274 380.311 803.672 381.548 795.626 427.965C787.58 474.382 739.925 551.744 731.261 553.601C722.596 555.458 691.033 541.842 691.033 537.51C691.033 533.177 721.359 453.34 721.359 453.34L647.091 430.441L679.274 380.311Z" fill="#19172C"/>
<path d="M702.792 241.678C702.792 241.678 710.218 312.851 706.505 323.991C702.792 335.131 689.795 365.457 673.085 380.311C656.375 395.164 632.857 470.05 619.86 434.154C606.863 398.258 640.902 378.454 640.902 378.454L675.023 330.448L675.344 252.322L702.792 241.678Z" fill="#E9AFB7"/>
<path d="M563.541 390.832C563.541 390.832 624.811 412.493 631.619 409.399C638.427 406.304 653.28 417.444 653.28 417.444C660.144 415.975 667.231 415.874 674.134 417.149C681.038 418.423 687.621 421.047 693.508 424.871C713.313 437.868 717.645 452.721 713.313 453.34C708.981 453.959 693.508 447.151 693.508 447.151C693.508 447.151 669.99 442.2 655.756 446.532C641.521 450.864 622.969 441.731 622.969 441.731L547.449 424.871L563.541 390.832Z" fill="#E9AFB7"/>
<path opacity="0.1" d="M563.541 390.832C563.541 390.832 624.811 412.493 631.619 409.399C638.427 406.304 653.28 417.444 653.28 417.444C660.144 415.975 667.231 415.874 674.134 417.149C681.038 418.423 687.621 421.047 693.508 424.871C713.313 437.868 717.645 452.721 713.313 453.34C708.981 453.959 693.508 447.151 693.508 447.151C693.508 447.151 669.99 442.2 655.756 446.532C641.521 450.864 622.969 441.731 622.969 441.731L547.449 424.871L563.541 390.832Z" fill="#F0A62E"/>
<path d="M533.834 268.291C533.834 268.291 534.453 345.034 543.736 354.317C553.019 363.6 562.922 375.978 572.205 381.548C581.488 387.118 586.44 400.115 586.44 400.115C586.44 400.115 631 465.099 631.619 435.392C632.238 405.685 608.72 382.167 608.72 382.167L604.117 377.784C594.047 368.308 584.942 357.856 576.935 346.582C575.108 343.894 572.887 341.494 570.348 339.464C562.303 333.275 560.446 265.196 560.446 265.196L533.834 268.291Z" fill="#E9AFB7"/>
<path d="M688.557 203.307L701.554 210.734C701.554 210.734 706.505 243.535 708.981 247.867C711.456 252.199 678.655 263.34 673.704 260.245C668.753 257.151 666.277 226.825 666.277 226.825L688.557 203.307Z" fill="#01956C"/>
<path d="M541.879 214.447H533.834C533.834 214.447 525.169 223.73 525.788 243.535C526.407 263.339 518.361 275.717 523.312 277.574C528.264 279.431 552.96 269.603 552.68 272.351C552.4 275.098 565.397 270.147 565.397 270.147L556.733 237.346L541.879 214.447Z" fill="#01956C"/>
<path opacity="0.1" d="M479.681 341.32C479.681 341.32 517.434 357.411 527.955 359.887C538.476 362.363 572.481 391.331 572.481 391.331L549.269 426.578C549.269 426.578 525.48 423.633 512.483 421.158C499.486 418.682 422.124 367.314 435.121 358.649C448.118 349.985 479.681 341.32 479.681 341.32Z" fill="#F0A62E"/>
<path d="M471.944 341.32C471.944 341.32 509.697 357.411 520.218 359.887C530.739 362.363 572.205 390.832 572.205 390.832L551.782 430.441C551.782 430.441 517.742 423.633 504.746 421.158C491.749 418.682 414.387 367.314 427.384 358.649C440.381 349.985 471.944 341.32 471.944 341.32Z" fill="#19172C"/>
<path d="M654.943 101.115L622.804 84.3937L602.241 86.8175C594.953 87.6782 588.109 90.5549 582.596 95.0741C577.083 99.5933 573.157 105.546 571.327 112.16L567 127.775L590.241 127.54L597.169 113.642L596.733 127.473L607.457 127.365L614.377 105.135L617.511 129.068L655.613 129.322L654.943 101.115Z" fill="#2F2E41"/>
</g>
<defs>
<clipPath id="clip0">
<rect width="881" height="722.628" fill="white"/>
</clipPath>
</defs>
</svg>
